<?xml version="1.0" encoding="UTF-8"?><svg id="a" xmlns="http://www.w3.org/2000/svg" width="700" height="300" viewBox="0 0 700 300"><rect width="700" height="300" fill="#f4f2ed"/><path d="M50,178.235c0-65.33,13.754-88.417,43.226-88.417s42.489,23.578,41.752,71.47h-33.893c1.228-31.437-2.21-47.893-7.859-47.893-6.14,0-9.333,17.929-9.333,64.839,0,47.647,3.193,64.839,9.333,64.839,5.649,0,9.333-13.754,8.35-60.664h33.893c.737,61.892-13.754,84.241-42.244,84.241-30.209,0-43.226-22.104-43.226-88.417Z" fill="#2e2b29"/><path d="M144.706,92.275h62.874v23.086h-29.227v45.931h24.315v21.081h-24.315v58.736h30.209v23.087h-63.856V92.275Z" fill="#2e2b29"/><path d="M217.343,92.275h36.595l24.806,111.012v-111.012h27.753v171.921h-34.875l-26.525-109.293v109.293h-27.753V92.275Z" fill="#2e2b29"/><path d="M335.417,113.356h-19.157v-21.081h71.961v21.081h-19.157v150.84h-33.648V113.356Z" fill="#2e2b29"/><path d="M397.984,92.275h32.174c33.647,0,55.015,15.964,55.015,46.419,0,31.437-23.823,47.156-42.735,49.611l21.455-.063,22.262,75.955h-34.875l-19.648-75.645v75.645h-33.648V92.275ZM451.034,142.377c0-17.438-7.859-28.49-19.402-28.49v60.173c12.771-3.93,19.402-15.719,19.402-31.683Z" fill="#2e2b29"/><path d="M512.002,92.275h48.875l22.104,171.921h-33.648l-2.947-29.718h-21.614l-2.947,29.718h-31.928l22.104-171.921ZM544.176,210.655l-8.596-87.926-8.596,87.926h17.193Z" fill="#2e2b29"/><path d="M587.863,92.275h33.648v148.835h28.49v23.087h-62.137V92.275Z" fill="#2e2b29"/><path d="M570.057,46.334c-.028-6.948-6.051-12.218-12.67-12.892l-12.354.019-12.354-.019c-3.775.384-7.351,2.267-9.737,5.1-2.386-2.833-5.962-4.716-9.737-5.1l-12.354.019-12.354-.019c-6.619.674-12.642,5.944-12.669,12.892l-.141,34.976,6.146.017.069-34.722c.008-3.733,3.588-6.977,7.179-6.974l11.769.01,11.77-.01c3.59-.003,7.172,3.241,7.179,6.974l.069,34.567v.138s0,0,0,0v.017l3.073-.008,3.073.008v-.017h0v-.081l.069-34.624c.008-3.733,3.588-6.977,7.179-6.974l11.77.01,11.77-.01c3.591-.003,7.172,3.241,7.179,6.974l.069,34.722,6.146-.017-.14-34.976Z" fill="#2e2b29"/><path d="M494.768,46.334c-.028-6.948-6.051-12.218-12.67-12.892l-12.354.019-12.354-.019c-3.775.384-7.351,2.267-9.737,5.1-2.386-2.833-5.962-4.716-9.737-5.1l-12.354.019-12.354-.019c-6.619.674-12.642,5.944-12.669,12.892l-.141,34.976,6.146.017.069-34.722c.008-3.733,3.588-6.977,7.179-6.974l11.769.01,11.77-.01c3.59-.003,7.172,3.241,7.179,6.974l.069,34.567v.138s0,0,0,0v.017l3.073-.008,3.073.008v-.017h0v-.081l.069-34.624c.008-3.733,3.588-6.977,7.179-6.974l11.77.01,11.77-.01c3.591-.003,7.172,3.241,7.179,6.974l.069,34.722,6.146-.017-.14-34.976Z" fill="#2e2b29"/><path d="M588.771,75.335l33.442-.007-.006,6.033-35.01-.131c-6.756-.025-12.706-6.122-12.702-12.786l.011-22.251c.003-6.615,5.999-12.667,12.683-12.695l35.023-.149-.004,6.161-34.719.073c-3.546.007-6.903,3.431-6.897,6.909l.039,21.901c.007,4.108,4.152,6.943,8.139,6.942Z" fill="#2e2b29"/></svg>