<?xml version="1.0" encoding="UTF-8"?>
<svg id="Layer_1" data-name="Layer 1" xmlns="http://www.w3.org/2000/svg" viewBox="0 0 811.26 227.41">
  <defs>
    <style>
      .cls-1 {
        fill: #231f20;
      }
    </style>
  </defs>
  <g>
    <path class="cls-1" d="M221.35,147.62h-26.07v-25.05h81.78v25.05h-26.07v63.57h-29.65v-63.57Z"/>
    <path class="cls-1" d="M300.5,122.57h29.19l37.06,88.62h-31.91l-4.66-11.82h-30.81l-4.51,11.82h-31.42l37.06-88.62ZM322.9,178.49l-8.05-21.36-8.05,21.36h16.09Z"/>
    <path class="cls-1" d="M370.28,122.57h49.64c12.28,0,20.01,2.77,25.2,7.96,3.16,3.16,5.44,7.73,5.44,13.81v.25c0,10.52-6.32,16.97-15.81,20.26,11.39,3.29,18.73,9.36,18.73,21.52v.27c0,14.18-11.64,24.56-34.07,24.56h-49.12v-88.62ZM421.42,151.05c0-3.93-3.16-6.08-9.49-6.08h-12.8v12.4h12.92c6.35,0,9.36-2.15,9.36-6.08v-.25ZM414.09,175.61h-14.95v13.17h14.82c6.47,0,9.76-2.67,9.76-6.47v-.25c0-3.8-3.16-6.45-9.64-6.45Z"/>
    <path class="cls-1" d="M461.11,122.57h29.62v63.3h41.66v25.32h-71.28v-88.62Z"/>
    <path class="cls-1" d="M539.76,122.57h75.6v24.31h-46.47v8.97h47.09v21.42h-47.09v9.61h47.09v24.31h-76.22v-88.62Z"/>
  </g>
  <g>
    <polygon class="cls-1" points="194.83 29.03 246.68 29.03 246.68 60.14 277.79 60.14 277.79 111.99 194.83 111.99 194.83 29.03"/>
    <circle class="cls-1" cx="327.33" cy="70.51" r="41.48"/>
    <path class="cls-1" d="M376.88,29.03v41.48s0,41.48,41.48,41.48,41.48-41.48,41.48-41.48V29.03h-82.96Z"/>
    <path class="cls-1" d="M467.9,111.99h41.48s41.48,0,41.48-41.48-41.48-41.48-41.48-41.48h-41.48v82.96Z"/>
  </g>
</svg>