<?xml version="1.0" encoding="UTF-8"?>
<svg id="Layer_1" data-name="Layer 1" xmlns="http://www.w3.org/2000/svg" viewBox="0 0 811.26 99.27">
  <defs>
    <style>
      .cls-1 {
        fill: #231f20;
      }
    </style>
  </defs>
  <polygon class="cls-1" points="3.45 5.77 58.72 5.77 58.72 38.93 91.88 38.93 91.88 94.19 3.45 94.19 3.45 5.77"/>
  <circle class="cls-1" cx="144.68" cy="49.98" r="44.21"/>
  <path class="cls-1" d="M197.49,5.77v44.21s0,44.21,44.21,44.21,44.21-44.21,44.21-44.21V5.77h-88.42Z"/>
  <path class="cls-1" d="M294.51,94.19h44.21s44.21,0,44.21-44.21-44.21-44.21-44.21-44.21h-44.21v88.42Z"/>
  <path class="cls-1" d="M412.42,30.72h-26.07V5.67h81.78v25.05h-26.07v63.57h-29.65V30.72Z"/>
  <path class="cls-1" d="M491.58,5.67h29.19l37.06,88.62h-31.91l-4.66-11.82h-30.81l-4.51,11.82h-31.42L491.58,5.67ZM513.97,61.59l-8.05-21.36-8.05,21.36h16.09Z"/>
  <path class="cls-1" d="M561.36,5.67h49.64c12.28,0,20.01,2.77,25.2,7.96,3.16,3.16,5.44,7.73,5.44,13.81v.25c0,10.52-6.32,16.97-15.81,20.26,11.39,3.29,18.73,9.36,18.73,21.52v.27c0,14.18-11.64,24.56-34.07,24.56h-49.12V5.67ZM612.5,34.15c0-3.93-3.16-6.08-9.49-6.08h-12.8v12.4h12.92c6.35,0,9.36-2.15,9.36-6.08v-.25ZM605.16,58.71h-14.95v13.17h14.82c6.47,0,9.76-2.67,9.76-6.47v-.25c0-3.8-3.16-6.45-9.64-6.45Z"/>
  <path class="cls-1" d="M652.19,5.67h29.62v63.3h41.66v25.32h-71.28V5.67Z"/>
  <path class="cls-1" d="M730.84,5.67h75.6v24.31h-46.47v8.97h47.09v21.42h-47.09v9.61h47.09v24.31h-76.22V5.67Z"/>
</svg>