<?xml version="1.0" encoding="UTF-8"?><svg id="a" xmlns="http://www.w3.org/2000/svg" width="300" height="300" viewBox="0 0 300 300"><rect width="300" height="300" fill="#2e2b29"/><path d="M206.374,59.164c-5.726-11.199-13.434-19.793-22.919-25.534-9.464-5.726-20.719-8.63-33.458-8.63s-23.994,2.904-33.453,8.63c-9.484,5.741-17.193,14.335-22.919,25.534-10.056,19.674-14.736,48.54-14.736,90.834,0,42.958,4.572,71.952,14.391,91.246,5.849,11.498,13.861,20.194,23.799,25.843,9.366,5.324,20.132,7.914,32.917,7.914s23.557-2.59,32.923-7.914c9.938-5.649,17.945-14.345,23.799-25.843,9.819-19.293,14.392-48.288,14.392-91.246,0-42.294-4.681-71.159-14.737-90.834ZM149.997,255.434c-36.022,0-51.541-26.358-51.541-105.436,0-77.899,16.399-105.431,51.541-105.431s50.667,28.114,49.791,85.227h-40.415c1.462-37.49-2.636-57.113-9.376-57.113-7.322,0-11.127,21.379-11.127,77.318,0,56.819,3.805,77.318,11.127,77.318,6.74,0,11.132-16.4,9.958-72.339h40.42c.875,73.806-16.405,100.457-50.378,100.457Z" fill="#f5f2ec"/></svg>